<svg width="1440" height="3611" viewBox="0 0 1440 3611" fill="none" xmlns="http://www.w3.org/2000/svg">
<path d="M1209.71 3610.92H1524.71C1532.17 3610.92 1538.21 3604.88 1538.21 3597.42C1538.21 3589.96 1532.17 3583.92 1524.71 3583.92H1209.71C1202.25 3583.92 1196.21 3589.96 1196.21 3597.42C1196.21 3604.88 1202.25 3610.92 1209.71 3610.92Z" fill="#D0BF22" fill-opacity="0.4"/>
<path d="M1113.5 3541.12H1428.5C1435.96 3541.12 1442 3535.08 1442 3527.62C1442 3520.16 1435.96 3514.12 1428.5 3514.12H1113.5C1106.04 3514.12 1100 3520.16 1100 3527.62C1100 3535.08 1106.04 3541.12 1113.5 3541.12Z" fill="#D0BF22" fill-opacity="0.4"/>
<path d="M1271.74 3484.69H1586.74C1594.2 3484.69 1600.24 3478.65 1600.24 3471.19C1600.24 3463.73 1594.2 3457.69 1586.74 3457.69H1271.74C1264.28 3457.69 1258.24 3463.73 1258.24 3471.19C1258.24 3478.65 1264.28 3484.69 1271.74 3484.69Z" fill="#D0BF22" fill-opacity="0.4"/>
<path d="M1364.58 3484.69C1353.09 3497.99 1364.58 3514.12 1364.58 3514.12C1364.58 3514.12 1352.64 3514.12 1341.6 3514.12C1348.35 3501.6 1349.28 3499.4 1341.6 3484.69" fill="#D0BF22" fill-opacity="0.4"/>
<path d="M1286.92 3541.12C1275.43 3560.47 1286.92 3583.92 1286.92 3583.92C1286.92 3583.92 1274.98 3583.92 1263.94 3583.92C1270.69 3565.72 1271.62 3562.52 1263.94 3541.12" fill="#D0BF22" fill-opacity="0.4"/>
<path d="M1209.71 2617.69H1524.71C1532.17 2617.69 1538.21 2611.65 1538.21 2604.19C1538.21 2596.73 1532.17 2590.69 1524.71 2590.69H1209.71C1202.25 2590.69 1196.21 2596.73 1196.21 2604.19C1196.21 2611.65 1202.25 2617.69 1209.71 2617.69Z" fill="#D0BF22" fill-opacity="0.4"/>
<path d="M1113.5 2547.89H1428.5C1435.96 2547.89 1442 2541.85 1442 2534.39C1442 2526.93 1435.96 2520.89 1428.5 2520.89H1113.5C1106.04 2520.89 1100 2526.93 1100 2534.39C1100 2541.85 1106.04 2547.89 1113.5 2547.89Z" fill="#D0BF22" fill-opacity="0.4"/>
<path d="M1271.74 2491.46H1586.74C1594.2 2491.46 1600.24 2485.42 1600.24 2477.96C1600.24 2470.5 1594.2 2464.46 1586.74 2464.46H1271.74C1264.28 2464.46 1258.24 2470.5 1258.24 2477.96C1258.24 2485.42 1264.28 2491.46 1271.74 2491.46Z" fill="#D0BF22" fill-opacity="0.4"/>
<path d="M1364.58 2491.46C1353.09 2504.76 1364.58 2520.89 1364.58 2520.89C1364.58 2520.89 1352.64 2520.89 1341.6 2520.89C1348.35 2508.37 1349.28 2506.17 1341.6 2491.46" fill="#D0BF22" fill-opacity="0.4"/>
<path d="M1286.92 2547.89C1275.43 2567.24 1286.92 2590.69 1286.92 2590.69C1286.92 2590.69 1274.98 2590.69 1263.94 2590.69C1270.69 2572.49 1271.62 2569.29 1263.94 2547.89" fill="#D0BF22" fill-opacity="0.4"/>
<path d="M1209.71 1624.46H1524.71C1532.17 1624.46 1538.21 1618.42 1538.21 1610.96C1538.21 1603.5 1532.17 1597.46 1524.71 1597.46H1209.71C1202.25 1597.46 1196.21 1603.5 1196.21 1610.96C1196.21 1618.42 1202.25 1624.46 1209.71 1624.46Z" fill="#D0BF22" fill-opacity="0.4"/>
<path d="M1113.5 1554.66H1428.5C1435.96 1554.66 1442 1548.62 1442 1541.16C1442 1533.7 1435.96 1527.66 1428.5 1527.66H1113.5C1106.04 1527.66 1100 1533.7 1100 1541.16C1100 1548.62 1106.04 1554.66 1113.5 1554.66Z" fill="#D0BF22" fill-opacity="0.4"/>
<path d="M1271.74 1498.23H1586.74C1594.2 1498.23 1600.24 1492.19 1600.24 1484.73C1600.24 1477.27 1594.2 1471.23 1586.74 1471.23H1271.74C1264.28 1471.23 1258.24 1477.27 1258.24 1484.73C1258.24 1492.19 1264.28 1498.23 1271.74 1498.23Z" fill="#D0BF22" fill-opacity="0.4"/>
<path d="M1364.58 1498.23C1353.09 1511.53 1364.58 1527.66 1364.58 1527.66C1364.58 1527.66 1352.64 1527.66 1341.6 1527.66C1348.35 1515.14 1349.28 1512.94 1341.6 1498.23" fill="#D0BF22" fill-opacity="0.4"/>
<path d="M1286.92 1554.66C1275.43 1574.01 1286.92 1597.46 1286.92 1597.46C1286.92 1597.46 1274.98 1597.46 1263.94 1597.46C1270.69 1579.26 1271.62 1576.06 1263.94 1554.66" fill="#D0BF22" fill-opacity="0.4"/>
<path d="M1209.71 631.23H1524.71C1532.17 631.23 1538.21 625.186 1538.21 617.73C1538.21 610.274 1532.17 604.23 1524.71 604.23H1209.71C1202.25 604.23 1196.21 610.274 1196.21 617.73C1196.21 625.186 1202.25 631.23 1209.71 631.23Z" fill="#D0BF22" fill-opacity="0.4"/>
<path d="M1113.5 561.43H1428.5C1435.96 561.43 1442 555.386 1442 547.93C1442 540.474 1435.96 534.43 1428.5 534.43H1113.5C1106.04 534.43 1100 540.474 1100 547.93C1100 555.386 1106.04 561.43 1113.5 561.43Z" fill="#D0BF22" fill-opacity="0.4"/>
<path d="M1271.74 505L1586.74 505C1594.2 505 1600.24 498.956 1600.24 491.5C1600.24 484.044 1594.2 478 1586.74 478L1271.74 478C1264.28 478 1258.24 484.044 1258.24 491.5C1258.24 498.956 1264.28 505 1271.74 505Z" fill="#D0BF22" fill-opacity="0.4"/>
<path d="M1364.58 505C1353.09 518.3 1364.58 534.43 1364.58 534.43C1364.58 534.43 1352.64 534.43 1341.6 534.43C1348.35 521.91 1349.28 519.71 1341.6 505" fill="#D0BF22" fill-opacity="0.4"/>
<path d="M1286.92 561.43C1275.43 580.78 1286.92 604.23 1286.92 604.23C1286.92 604.23 1274.98 604.23 1263.94 604.23C1270.69 586.03 1271.62 582.83 1263.94 561.43" fill="#D0BF22" fill-opacity="0.4"/>
<path d="M390.53 3105.92H75.53C68.0742 3105.92 62.03 3111.96 62.03 3119.42C62.03 3126.88 68.0742 3132.92 75.53 3132.92H390.53C397.986 3132.92 404.03 3126.88 404.03 3119.42C404.03 3111.96 397.986 3105.92 390.53 3105.92Z" fill="#D0BF22" fill-opacity="0.4"/>
<path d="M486.74 3036.12H171.74C164.284 3036.12 158.24 3042.16 158.24 3049.62C158.24 3057.08 164.284 3063.12 171.74 3063.12H486.74C494.196 3063.12 500.24 3057.08 500.24 3049.62C500.24 3042.16 494.196 3036.12 486.74 3036.12Z" fill="#D0BF22" fill-opacity="0.4"/>
<path d="M328.5 2979.69H13.5C6.04416 2979.69 0 2985.73 0 2993.19C0 3000.65 6.04416 3006.69 13.5 3006.69H328.5C335.956 3006.69 342 3000.65 342 2993.19C342 2985.73 335.956 2979.69 328.5 2979.69Z" fill="#D0BF22" fill-opacity="0.4"/>
<path d="M235.66 3006.69C247.15 3019.99 235.66 3036.12 235.66 3036.12C235.66 3036.12 247.6 3036.12 258.64 3036.12C251.89 3023.6 250.96 3021.4 258.64 3006.69" fill="#D0BF22" fill-opacity="0.4"/>
<path d="M313.32 3063.12C324.81 3082.47 313.32 3105.92 313.32 3105.92C313.32 3105.92 325.26 3105.92 336.3 3105.92C329.55 3087.72 328.62 3084.52 336.3 3063.12" fill="#D0BF22" fill-opacity="0.4"/>
<path d="M390.53 2112.69H75.53C68.0742 2112.69 62.03 2118.73 62.03 2126.19C62.03 2133.65 68.0742 2139.69 75.53 2139.69H390.53C397.986 2139.69 404.03 2133.65 404.03 2126.19C404.03 2118.73 397.986 2112.69 390.53 2112.69Z" fill="#D0BF22" fill-opacity="0.4"/>
<path d="M486.74 2042.89H171.74C164.284 2042.89 158.24 2048.93 158.24 2056.39C158.24 2063.85 164.284 2069.89 171.74 2069.89H486.74C494.196 2069.89 500.24 2063.85 500.24 2056.39C500.24 2048.93 494.196 2042.89 486.74 2042.89Z" fill="#D0BF22" fill-opacity="0.4"/>
<path d="M328.5 1986.46H13.5C6.04416 1986.46 0 1992.5 0 1999.96C0 2007.42 6.04416 2013.46 13.5 2013.46H328.5C335.956 2013.46 342 2007.42 342 1999.96C342 1992.5 335.956 1986.46 328.5 1986.46Z" fill="#D0BF22" fill-opacity="0.4"/>
<path d="M235.66 2013.46C247.15 2026.76 235.66 2042.89 235.66 2042.89C235.66 2042.89 247.6 2042.89 258.64 2042.89C251.89 2030.37 250.96 2028.17 258.64 2013.46" fill="#D0BF22" fill-opacity="0.4"/>
<path d="M313.32 2069.89C324.81 2089.24 313.32 2112.69 313.32 2112.69C313.32 2112.69 325.26 2112.69 336.3 2112.69C329.55 2094.49 328.62 2091.29 336.3 2069.89" fill="#D0BF22" fill-opacity="0.4"/>
<path d="M390.53 1119.46H75.53C68.0742 1119.46 62.03 1125.5 62.03 1132.96C62.03 1140.42 68.0742 1146.46 75.53 1146.46H390.53C397.986 1146.46 404.03 1140.42 404.03 1132.96C404.03 1125.5 397.986 1119.46 390.53 1119.46Z" fill="#D0BF22" fill-opacity="0.4"/>
<path d="M486.74 1049.66H171.74C164.284 1049.66 158.24 1055.7 158.24 1063.16C158.24 1070.62 164.284 1076.66 171.74 1076.66H486.74C494.196 1076.66 500.24 1070.62 500.24 1063.16C500.24 1055.7 494.196 1049.66 486.74 1049.66Z" fill="#D0BF22" fill-opacity="0.4"/>
<path d="M328.5 993.23H13.5C6.04416 993.23 0 999.274 0 1006.73C0 1014.19 6.04416 1020.23 13.5 1020.23H328.5C335.956 1020.23 342 1014.19 342 1006.73C342 999.274 335.956 993.23 328.5 993.23Z" fill="#D0BF22" fill-opacity="0.4"/>
<path d="M235.66 1020.23C247.15 1033.53 235.66 1049.66 235.66 1049.66C235.66 1049.66 247.6 1049.66 258.64 1049.66C251.89 1037.14 250.96 1034.94 258.64 1020.23" fill="#D0BF22" fill-opacity="0.4"/>
<path d="M313.32 1076.66C324.81 1096.01 313.32 1119.46 313.32 1119.46C313.32 1119.46 325.26 1119.46 336.3 1119.46C329.55 1101.26 328.62 1098.06 336.3 1076.66" fill="#D0BF22" fill-opacity="0.4"/>
<path d="M390.53 126.23H75.53C68.0742 126.23 62.03 132.274 62.03 139.73C62.03 147.186 68.0742 153.23 75.53 153.23H390.53C397.986 153.23 404.03 147.186 404.03 139.73C404.03 132.274 397.986 126.23 390.53 126.23Z" fill="#D0BF22" fill-opacity="0.4"/>
<path d="M486.74 56.43H171.74C164.284 56.43 158.24 62.4741 158.24 69.93C158.24 77.3858 164.284 83.43 171.74 83.43H486.74C494.196 83.43 500.24 77.3858 500.24 69.93C500.24 62.4741 494.196 56.43 486.74 56.43Z" fill="#D0BF22" fill-opacity="0.4"/>
<path d="M328.5 0H13.5C6.04416 0 0 6.04416 0 13.5C0 20.9558 6.04416 27 13.5 27H328.5C335.956 27 342 20.9558 342 13.5C342 6.04416 335.956 0 328.5 0Z" fill="#D0BF22" fill-opacity="0.4"/>
<path d="M235.66 27C247.15 40.3 235.66 56.43 235.66 56.43C235.66 56.43 247.6 56.43 258.64 56.43C251.89 43.91 250.96 41.71 258.64 27" fill="#D0BF22" fill-opacity="0.4"/>
<path d="M313.32 83.43C324.81 102.78 313.32 126.23 313.32 126.23C313.32 126.23 325.26 126.23 336.3 126.23C329.55 108.03 328.62 104.83 336.3 83.43" fill="#D0BF22" fill-opacity="0.4"/>
</svg>
