<svg width="85" height="18" viewBox="0 0 85 18" fill="none" xmlns="http://www.w3.org/2000/svg">
<path d="M3.84598 12.6192C3.84598 12.7758 3.72851 12.9129 3.61105 13.0303C3.51317 13.1282 3.35655 13.3044 3.29782 13.3827C2.59305 14.1071 1.92743 14.8314 1.04646 15.4579C0.987733 15.497 0.929 15.5166 0.889846 15.5166C0.811538 15.5166 0.752808 15.4775 0.752808 15.3992C0.752808 15.3404 0.772385 15.2817 0.831116 15.2034C1.37927 14.5965 1.96658 13.6177 2.31897 12.815C2.43643 12.5213 2.51474 12.2864 2.51474 12.0319C2.51474 11.9732 2.49516 11.8557 2.49516 11.7383C2.49516 11.6012 2.57347 11.5229 2.69093 11.5229C2.8867 11.5229 3.51317 11.9928 3.74809 12.3843C3.8264 12.5018 3.84598 12.5605 3.84598 12.6192ZM4.3354 0.657674C4.3354 0.442326 4.39413 0.285706 4.53117 0.285706C4.70737 0.285706 5.37298 0.65767 5.68622 0.990479C5.7841 1.08836 5.84283 1.20584 5.84283 1.3233C5.84283 1.42118 5.80368 1.53865 5.70579 1.67569C5.58833 1.8323 5.45129 2.04764 5.41214 2.12595C4.70736 3.28099 3.76767 4.69054 2.92586 5.61066C3.65021 6.0022 4.12005 6.29585 4.68779 6.72655C5.19679 6.04135 5.60791 5.45405 5.92114 4.88632C6.39099 4.06408 6.50845 3.67253 6.52803 3.1048C6.5476 2.86988 6.58676 2.77199 6.68464 2.77199C6.88041 2.77199 7.70265 3.20268 8.01588 3.57464C8.11377 3.69211 8.13334 3.75084 8.13334 3.80957C8.13334 3.92704 8.05503 4.02492 7.95715 4.10323C7.83969 4.20112 7.72222 4.37731 7.50688 4.65139C6.15606 6.31543 4.70737 8.01863 3.29782 9.46733C4.45286 9.23241 5.86241 8.93876 7.11534 8.66468C6.88041 8.31229 6.7238 8.05779 6.52803 7.74456C6.48887 7.68583 6.4693 7.62709 6.4693 7.56836C6.4693 7.50963 6.50845 7.47048 6.60633 7.47048C6.70422 7.47048 7.27195 7.74455 7.72223 8.07736C8.28996 8.50806 8.62277 8.99748 8.62277 9.4086C8.62277 9.72183 8.38784 9.91761 8.15292 9.91761C8.01588 9.91761 7.85926 9.83929 7.72223 9.6631C7.60476 9.50648 7.4873 9.33029 7.38942 9.13452C6.76295 9.36945 6.11691 9.56522 5.49045 9.78057C5.56875 9.8393 5.62748 9.89803 5.70579 9.97634C5.82325 10.0938 5.84283 10.1721 5.84283 10.3091C5.84283 10.3875 5.84283 10.4462 5.82325 10.6615C5.80368 11.5425 5.76452 13.0891 5.76452 15.4775C5.76452 15.8299 5.76452 16.1431 5.74495 16.5542C5.74495 17.0436 5.58833 17.2786 5.21637 17.2786C4.96187 17.2786 4.82483 17.0828 4.70737 16.8087C4.5899 16.5151 4.51159 16.2214 4.51159 16.0256C4.51159 15.6732 4.62906 15.4383 4.64863 15.1251C4.70736 14.3616 4.74652 13.1282 4.78567 12.1494C4.78567 11.1705 4.78567 10.8182 4.7661 10.5441C4.7661 10.4266 4.7661 10.2308 4.74652 10.0351C4.15921 10.2308 3.63063 10.4266 3.21951 10.6028C3.0629 10.6615 2.69093 10.779 2.43643 10.8965C2.39728 10.916 2.31897 10.9356 2.24066 10.9356C2.1232 10.9356 1.98616 10.8965 1.90785 10.7203C1.79039 10.4853 1.59462 10.0155 1.59462 9.80014C1.59462 9.64352 1.69251 9.56522 2.00574 9.50649C2.27982 9.46734 2.59305 9.34987 2.84755 9.03663C3.37613 8.41017 3.84598 7.84244 4.23752 7.33344C3.59147 7.00063 2.98459 6.76571 2.74966 6.6874C2.49516 6.58951 2.27981 6.53077 2.1232 6.5112C1.98616 6.49162 1.79039 6.39374 1.79039 5.88473C1.79039 5.45404 1.8687 5.31701 2.10362 5.2387C2.35812 5.16039 2.51474 5.02334 2.69093 4.76884C3.3174 3.8683 3.88513 2.5958 4.23752 1.5778C4.31582 1.32329 4.3354 1.08837 4.3354 0.892603V0.657674ZM6.70422 11.0139C6.70422 10.9552 6.74337 10.916 6.82168 10.916C6.99788 10.916 7.60476 11.3076 7.918 11.6404C8.32911 12.0515 8.54446 12.5018 8.54446 12.8933C8.54446 13.1674 8.40742 13.5002 8.09419 13.5002C7.93757 13.5002 7.70265 13.4023 7.56561 13.1282C7.25238 12.5213 7.05661 11.797 6.74337 11.1705C6.7238 11.1314 6.70422 11.0531 6.70422 11.0139ZM13.5953 6.15881C13.7715 6.25669 13.9086 6.41332 13.9086 6.55036C13.9086 6.76571 13.8498 6.90275 13.7911 7.05937C13.7128 7.29429 13.6736 7.64668 13.6541 8.31229C13.6149 9.64353 13.5758 11.1901 13.5366 13.833C14.5546 13.7743 15.4356 13.7743 16.1795 13.7547C16.4927 13.7547 16.6493 13.7156 16.9234 13.6372C17.1975 13.5589 17.3345 13.5394 17.4716 13.5394C17.6282 13.5394 18.0785 13.6764 18.4504 13.9505C18.7245 14.1658 18.842 14.4007 18.842 14.5182C18.842 14.7531 18.7245 14.8706 18.2938 14.8706C17.9806 14.8706 17.1779 14.7727 15.6509 14.7727C15.0832 14.7727 14.4567 14.7923 13.8303 14.8119C12.3032 14.8706 10.9329 14.9685 9.05346 15.2621C8.95558 15.2817 8.85769 15.3013 8.74023 15.3013C8.64235 15.3013 8.56404 15.2817 8.38784 15.1055C8.01588 14.7336 7.85926 14.4986 7.85926 14.4399C7.85926 14.3616 7.89842 14.3029 8.03546 14.2833C9.46458 14.1462 10.972 14.0288 12.4599 13.9113C12.4794 11.5621 12.4794 9.89803 12.4794 8.44933C12.4794 7.56837 12.4599 7.09851 12.4207 6.82444C12.3816 6.58951 12.3228 6.27629 12.1858 5.94348C10.5413 6.11967 9.93443 6.17839 9.50373 6.23712C9.40585 6.2567 9.36669 6.2567 9.30796 6.2567C9.26881 6.2567 9.21008 6.21755 9.13177 6.13924C8.87727 5.88474 8.66192 5.45404 8.66192 5.39531C8.66192 5.317 8.74023 5.29743 8.81854 5.27785C9.48416 5.25827 9.97358 5.19955 10.4043 5.16039C11.5789 5.04293 13.8694 4.84715 15.1615 4.69053C15.4747 4.65138 15.6705 4.5535 15.788 4.49477C15.9641 4.39688 16.2774 4.33816 16.3753 4.33816C16.5319 4.33816 16.806 4.41647 17.0017 4.53393C17.3541 4.71012 17.589 4.90589 17.589 5.0625C17.589 5.39531 17.4716 5.5715 16.7864 5.61066C15.553 5.66939 14.1435 5.78685 12.9297 5.88473C13.1842 5.96304 13.4191 6.06093 13.5953 6.15881Z" fill="white"/>
<path d="M33.0548 6.02177C34.4448 6.94189 36.0501 7.99905 37.0094 8.5472C37.5575 8.84086 38.2623 9.23241 38.7517 9.42818C39.5152 9.72184 40.1026 9.9176 40.7682 10.1917C41.0031 10.2896 41.1401 10.407 41.1401 10.5049C41.1401 10.6028 41.0227 10.6811 40.729 10.7398C40.2787 10.8377 39.4369 10.8965 38.8496 10.8965C38.1057 10.8965 37.8316 10.8769 37.3618 10.5049C36.3046 9.62394 35.5607 9.03663 34.1511 7.94032C33.0744 7.09851 32.2522 6.45247 31.4299 5.826C31.3321 5.92389 31.2342 6.04135 31.1559 6.11966C29.4527 7.90117 26.8489 10.3875 23.2467 11.66C23.188 11.6795 23.0901 11.6991 23.051 11.6991C22.9727 11.6991 22.8944 11.6208 22.8944 11.5425C22.8944 11.4838 22.9335 11.425 23.0314 11.3663C25.4589 10.0155 28.6108 7.39216 30.0204 5.41489C30.2749 5.0625 30.3728 4.80799 30.3728 4.55349C30.3728 4.31857 30.2553 4.18153 30.2553 4.08365C30.2553 3.94661 30.3728 3.88788 30.4902 3.88788C30.6664 3.88788 31.3516 4.12281 31.8606 4.53393C31.9977 4.65139 32.076 4.76885 32.076 4.88631C32.076 5.00377 32.0172 5.12124 31.9194 5.2387C32.213 5.43447 32.585 5.68896 33.0548 6.02177ZM28.2193 3.45718C26.8489 4.3773 25.8309 4.82758 24.6367 5.27785C24.578 5.29742 24.4801 5.31701 24.4214 5.31701C24.3431 5.31701 24.2843 5.25826 24.2843 5.17996C24.2843 5.12122 24.3431 5.04293 24.4409 4.96462C25.5373 4.18154 26.3986 3.49634 27.2013 2.49791C27.2796 2.40003 27.4558 2.1651 27.4558 1.9106C27.4558 1.83229 27.4166 1.75399 27.4166 1.67568C27.4166 1.55822 27.495 1.4799 27.5928 1.4799C27.7299 1.4799 28.2585 1.71483 28.7283 2.26298C28.9241 2.49791 28.9828 2.5958 28.9828 2.77199C28.9828 2.88945 28.9241 3.00691 28.787 3.08522C28.513 3.26141 28.3172 3.37888 28.2193 3.45718ZM34.7385 16.3976C34.3273 16.3976 33.7596 16.4172 33.1331 16.4367C31.8998 16.4955 30.5686 16.5738 28.9828 16.6913C28.9632 17.0045 28.8849 17.2394 28.5521 17.2394C28.1802 17.2394 27.9452 16.8283 27.8865 16.0452C27.8473 15.4187 27.8082 14.6748 27.7299 13.8134C27.6711 13.187 27.6124 12.5997 27.4754 11.9928C27.3971 11.6991 27.2992 11.5425 27.1817 11.3467C27.1426 11.2684 27.123 11.2097 27.123 11.151C27.123 11.0139 27.2209 10.9356 27.3579 10.9356C27.5145 10.9356 27.9061 11.1314 28.1214 11.2684C30.8818 11.0335 32.7808 10.8964 34.2686 10.779C34.5427 10.7594 34.6993 10.5441 34.993 10.5441C35.2866 10.5441 35.5998 10.7203 36.0893 11.0531C36.4417 11.3076 36.794 11.6208 36.794 11.8557C36.794 12.1102 36.6766 12.2081 36.5395 12.3452C36.3046 12.5409 36.2263 12.815 36.1088 13.2065C35.9327 13.8917 35.7173 14.6357 35.4824 15.4775C35.6977 15.6145 35.8739 15.8103 35.8739 15.9865C35.8739 16.2997 35.6782 16.3976 35.13 16.3976H34.7385ZM28.7675 12.306C28.8262 13.3827 28.8849 14.5965 28.9632 15.7907C30.7839 15.6341 32.6437 15.5166 34.4448 15.3992C34.6601 14.1462 34.8168 12.7367 34.8951 11.6991C33.0157 11.7774 31.058 11.9145 28.7675 12.1298V12.306ZM36.4025 3.41804C35.9131 2.94819 35.2279 2.26299 34.5818 1.67568C34.484 1.5778 34.4252 1.49948 34.4252 1.42117C34.4252 1.34286 34.5035 1.28413 34.6406 1.28413C34.8363 1.28413 36.1872 1.69525 37.1073 2.2434C38.0665 2.81114 38.3798 3.26142 38.3798 3.75084C38.3798 4.18154 38.1253 4.35772 37.8316 4.35772C37.538 4.35772 37.029 4.02492 36.4025 3.41804Z" fill="white"/>
<path d="M47.6397 14.342C48.8535 14.205 50.9874 14.0092 53.6303 13.8721C56.1362 13.7351 57.7806 13.6764 59.0923 13.6764C59.4447 13.6764 59.8949 13.6177 60.0907 13.5589C60.2278 13.5198 60.4235 13.4806 60.541 13.4806C60.8151 13.4806 61.5003 13.8134 61.8918 14.205C62.2442 14.5573 62.2833 14.714 62.2833 14.9293C62.2833 15.1642 62.1071 15.2425 61.8526 15.2425C61.696 15.2425 61.5003 15.223 61.2849 15.1642C60.7172 15.0468 59.5817 14.988 58.2896 14.9489C57.7023 14.9293 56.8018 14.9293 55.3335 14.9293C53.18 14.9293 50.5176 15.1838 47.8942 15.5558C47.3657 15.6341 46.9741 15.6928 46.8175 15.6928C46.6609 15.6928 46.5043 15.6732 46.3281 15.5558C46.0736 15.3796 45.408 14.7923 45.408 14.6356C45.408 14.5769 45.5058 14.5574 45.6233 14.5378C46.191 14.479 46.8958 14.4007 47.6397 14.342ZM59.2881 3.10479C59.1119 3.14394 58.8182 3.20267 58.2309 3.22225C56.606 3.33971 55.0007 3.41802 53.5716 3.5159C51.6139 3.63337 50.5763 3.73126 49.5974 3.82914C49.3821 3.84872 49.2255 3.86829 49.1472 3.86829C48.9905 3.86829 48.8927 3.82914 48.7752 3.75083C48.3054 3.4376 47.9138 2.94817 47.9138 2.81113C47.9138 2.7524 47.953 2.71325 48.0508 2.71325C48.1487 2.71325 48.4815 2.77198 48.736 2.77198C48.8535 2.77198 49.0884 2.7524 49.5387 2.73282C50.4001 2.69367 51.6334 2.57621 53.552 2.45874C54.707 2.38044 55.725 2.28255 57.0171 2.12594C57.3304 2.08678 57.5457 2.06721 57.7023 1.9889C57.8785 1.89101 58.0547 1.81271 58.2309 1.81271C58.4658 1.81271 59.0923 2.08679 59.4055 2.30214C59.6404 2.47833 59.6796 2.59578 59.6796 2.81113C59.6796 2.98732 59.5621 3.06563 59.2881 3.10479ZM57.115 7.21596C57.5065 7.21596 57.9764 7.41173 58.5246 7.78369C58.6812 7.90116 58.779 8.05778 58.779 8.23397C58.779 8.50805 58.6029 8.66467 58.2309 8.66467C58.0351 8.66467 57.5653 8.62551 56.8018 8.62551C55.9991 8.62551 55.1182 8.66466 53.7673 8.76254C52.4948 8.86043 50.635 9.0562 50.0477 9.13451C49.8911 9.15409 49.754 9.17366 49.6562 9.17366C49.5191 9.17366 49.4212 9.13451 49.3038 9.0562C48.8927 8.78212 48.5207 8.25354 48.5207 8.13608C48.5207 8.07735 48.5794 8.0382 48.6969 8.0382C49.0884 8.0382 49.8519 8.03819 50.5371 7.97946C52.3186 7.84242 54.2763 7.64666 55.9208 7.54878C56.1949 7.5292 56.4885 7.45089 56.7039 7.31385C56.8409 7.23554 56.978 7.21596 57.115 7.21596Z" fill="white"/>
<path d="M81.3318 3.79001C78.219 3.79001 73.9904 4.12283 69.8205 4.74929C69.7813 5.49322 69.4877 6.41333 69.2136 6.8636C69.0766 7.09852 68.8612 7.23557 68.6654 7.23557C68.3522 7.23557 68.0585 6.88318 68.0585 6.23713C68.0585 5.94348 68.1369 5.82602 68.4501 5.35617C68.6459 5.06252 68.9591 4.18156 68.9787 3.20271C68.9787 3.10482 69.0374 3.06567 69.0961 3.06567C69.1353 3.06567 69.1744 3.08524 69.2136 3.1244C69.4094 3.35932 69.6051 3.6334 69.7226 3.90748C71.5041 3.6334 73.2856 3.43763 75.0867 3.26143C75.0867 2.88947 75.0867 2.55666 75.0671 2.08682C75.0475 1.65612 74.9301 1.0688 74.7147 0.775145C74.6952 0.735991 74.6756 0.696842 74.6756 0.657688C74.6756 0.57938 74.7539 0.501068 74.8713 0.501068C75.3608 0.501068 76.0068 0.735996 76.4571 1.01007C76.6724 1.14711 76.7703 1.26458 76.7703 1.36246C76.7703 1.47992 76.7116 1.61697 76.6137 1.73443C76.4571 1.9302 76.4179 2.00851 76.3788 2.22385C76.32 2.59582 76.3005 2.8699 76.3005 3.14398C77.8862 3.02652 79.4719 2.92862 81.1164 2.88947C81.4688 2.88947 81.6842 2.81116 81.8016 2.81116C82.1148 2.81116 82.3498 2.86989 82.7022 3.04609C83.0154 3.22228 83.3482 3.47678 83.5831 3.69213C83.7789 3.8879 83.9747 4.22071 83.9747 4.45563C83.9747 4.76887 83.6223 4.86675 83.2112 5.00379C82.6239 5.23871 81.3709 5.5911 81.0968 5.5911C81.0185 5.5911 80.9598 5.55195 80.9598 5.51279C80.9598 5.45406 80.999 5.41491 81.0577 5.35617C81.5471 4.86675 81.9778 4.24028 81.9778 4.00536C81.9778 3.86832 81.8799 3.79001 81.6058 3.79001H81.3318ZM76.9857 4.74929C76.9857 4.61225 77.0248 4.53394 77.1619 4.53394C77.4359 4.53394 78.1016 4.88633 78.6693 5.51279C78.7476 5.5911 78.7868 5.6694 78.7868 5.74771C78.7868 5.88475 78.6693 5.98264 78.4539 6.08053C77.2793 6.60911 76.046 7.11811 74.8126 7.54881C75.302 7.9795 75.6153 8.27315 75.6153 8.52766C75.6153 8.56681 75.6153 8.58639 75.5761 8.66469C75.4587 8.89962 75.3804 9.31073 75.3412 10.1525C76.3984 9.93719 77.3576 9.74142 78.3952 9.52607C78.9042 9.40861 79.2958 9.27157 79.5307 9.11496C79.746 8.95834 79.9222 8.89961 80.118 8.89961C80.3529 8.89961 80.8619 9.07581 81.3709 9.34989C81.5863 9.46735 81.7037 9.64354 81.7037 9.78058C81.7037 10.0155 81.4296 10.1721 81.0577 10.1917C80.2159 10.2309 79.4915 10.3287 78.9434 10.4266C77.7883 10.6224 76.555 10.8377 75.2825 11.1118C75.2433 11.7774 75.2042 13.4611 75.2042 13.8526C75.2042 14.7923 75.3216 15.2034 75.6544 15.4579C76.1047 15.8103 77.3381 15.9278 78.5127 15.9278C79.9222 15.9278 81.5863 15.7124 82.0365 15.5166C82.5455 15.3013 82.7022 14.8315 82.7022 13.7743V13.5981C82.7022 13.5002 82.7609 13.4219 82.8392 13.4219C82.8979 13.4219 82.9567 13.4415 83.0154 13.5198C83.2699 13.8722 83.7006 14.4791 83.9355 14.9685C84.1313 15.3796 84.19 15.5166 84.19 15.7711C84.19 16.0452 83.9551 16.2801 83.6223 16.4368C82.6826 16.8283 80.764 17.0828 78.8846 17.0828C77.1619 17.0828 75.4978 16.887 74.793 16.2018C74.3036 15.7516 74.1078 15.086 74.1078 14.2637C74.1078 13.696 74.1274 12.306 74.147 11.3467C73.0507 11.5817 72.0131 11.8362 71.1713 12.0515C70.7406 12.169 70.0358 12.3647 69.5073 12.5409C69.3898 12.5801 69.2527 12.6192 69.1744 12.6192C69.1157 12.6192 69.0178 12.5801 68.9199 12.5214C68.5871 12.2864 68.176 11.9145 68.176 11.7579C68.176 11.6991 68.2152 11.6404 68.3522 11.6208C69.0766 11.5229 69.703 11.4055 70.4469 11.2293C71.7195 10.9356 72.9332 10.6615 74.1666 10.407L74.1862 9.38903C74.1862 8.91919 74.1274 8.07737 74.0491 7.78372C73.1094 8.0578 72.0327 8.3123 71.1321 8.46891C71.0147 8.48849 70.8776 8.50807 70.8189 8.50807C70.7014 8.50807 70.6427 8.42976 70.6427 8.33187C70.6427 8.27314 70.6819 8.19484 70.7798 8.15569C71.9739 7.76415 73.638 7.09853 74.4211 6.74614C75.2433 6.37418 76.0264 5.90433 76.7312 5.33659C76.9661 5.1604 76.9857 5.04295 76.9857 4.88633V4.74929Z" fill="white"/>
</svg>
